<?xml version="1.0" encoding="UTF-8"?>
<svg width="112px" height="20px" viewBox="0 0 112 20" version="1.1" xmlns="http://www.w3.org/2000/svg" xmlns:xlink="http://www.w3.org/1999/xlink">
    <!-- Generator: Sketch 51.3 (57544) - http://www.bohemiancoding.com/sketch -->
    <title>Group 22</title>
    <desc>Created with Sketch.</desc>
    <defs>
        <polygon id="path-1" points="0.409756098 0.258636364 10.8894959 0.258636364 10.8894959 15.4916364 0.409756098 15.4916364"></polygon>
        <polygon id="path-3" points="0.318426016 0.172545455 10.6747837 0.172545455 10.6747837 14.5454545 0.318426016 14.5454545"></polygon>
        <polygon id="path-5" points="0 0.269488544 15.9271293 0.269488544 15.9271293 18.6254172 0 18.6254172"></polygon>
    </defs>
    <g id="Symbols" stroke="none" stroke-width="1" fill="none" fill-rule="evenodd">
        <g id="Footer/Desktop" transform="translate(-222.000000, -41.000000)">
            <g id="Group-22" transform="translate(222.000000, 41.000000)">
                <path d="M25.8378537,9.46327273 L30.2472846,9.46327273 C29.9804878,8.41918182 29.2625041,7.72327273 28.0937886,7.72327273 C27.0065691,7.72327273 26.145626,8.31690909 25.8378537,9.46327273 M32.4508618,11.3878182 L25.8173659,11.3878182 C26.145626,12.5755455 27.0889756,13.3128182 28.3810732,13.3128182 C29.2702439,13.3296364 29.9604553,13.0046364 30.4858537,12.5041818 C30.6620488,12.3369091 30.9343089,12.3296364 31.1123252,12.4946364 L32.1972683,13.501 C32.3862114,13.6769091 32.3921301,13.9732727 32.2113821,14.1573636 C31.3290407,15.0582727 29.9809431,15.6873636 28.1962276,15.6873636 C25.2632846,15.6873636 23.0487805,13.6400909 23.0487805,10.5078182 C23.0487805,7.47736364 25.1613008,5.36827273 28.0113821,5.36827273 C30.9443252,5.36827273 32.9129756,7.49781818 32.9129756,10.4255455 C32.9129756,10.5837273 32.9129756,10.7746364 32.9061463,10.9482727 C32.8965854,11.1937273 32.6962602,11.3878182 32.4508618,11.3878182" id="Fill-1" fill="#002E43"></path>
                <g id="Group-5" transform="translate(33.691057, 0.196000)">
                    <mask id="mask-2" fill="white">
                        <use xlink:href="#path-1"></use>
                    </mask>
                    <g id="Clip-4"></g>
                    <path d="M8.34627642,10.373 C8.34627642,8.77572727 7.23856911,7.568 5.70061789,7.568 C4.26510569,7.568 3.13782114,8.65345455 3.13782114,10.373 C3.13782114,11.9907273 4.20364228,13.0961818 5.70061789,13.0961818 C7.17756098,13.0961818 8.34627642,12.0111818 8.34627642,10.373 M10.8894959,0.713 L10.8894959,14.873 C10.8894959,15.1243636 10.6859837,15.3275455 10.4342114,15.3275455 L8.78107317,15.3275455 C8.52930081,15.3275455 8.32578862,15.1243636 8.32578862,14.873 L8.32578862,14.1198182 L8.28481301,14.1198182 C7.58777236,15.0002727 6.54152846,15.4916364 5.20845528,15.4916364 C2.43986992,15.4916364 0.409756098,13.4443636 0.409756098,10.3525455 C0.409756098,7.32209091 2.43986992,5.17254545 5.12695935,5.17254545 C6.35713821,5.17254545 7.40338211,5.60254545 8.14139837,6.46209091 L8.20286179,6.46209091 L8.20286179,0.713 C8.20286179,0.462090909 8.40637398,0.258454545 8.65814634,0.258454545 L10.4342114,0.258454545 C10.6859837,0.258454545 10.8894959,0.462090909 10.8894959,0.713" id="Fill-3" fill="#002E43" mask="url(#mask-2)"></path>
                </g>
                <g id="Group-8" transform="translate(45.983740, 5.196000)">
                    <mask id="mask-4" fill="white">
                        <use xlink:href="#path-3"></use>
                    </mask>
                    <g id="Clip-7"></g>
                    <path d="M8.11107642,5.12754545 C8.11107642,3.59163636 7.00382439,2.60890909 5.5888,2.60890909 C4.09182439,2.60890909 3.04558049,3.63254545 3.04558049,5.148 C3.04558049,6.72436364 4.1532878,7.72754545 5.5888,7.72754545 C7.0652878,7.72754545 8.11107642,6.64254545 8.11107642,5.12754545 Z M10.2194992,0.336181818 C10.4712715,0.336181818 10.6747837,0.539818182 10.6747837,0.790727273 L10.6747837,9.18118182 C10.6747837,12.2934545 9.30073496,14.5457273 5.46541789,14.5457273 C4.02990569,14.5457273 2.78106016,14.258 1.67244228,13.7139091 C1.47894634,13.6184545 1.38561301,13.3934545 1.44343415,13.1857273 L1.82769431,11.8120909 C1.9046374,11.5375455 2.21240976,11.4020909 2.46782439,11.5289091 C3.29644228,11.9402727 4.15784065,12.2116364 5.21956423,12.2116364 C7.10626341,12.2116364 8.07010081,11.2084545 8.07010081,9.97981818 L8.07010081,8.97663636 L8.0086374,8.97663636 C7.31114146,9.73436364 6.30632846,10.1434545 5.0966374,10.1434545 C2.32805203,10.1434545 0.318426016,8.13709091 0.318426016,5.22981818 C0.318426016,2.28118182 2.26658862,0.172545455 4.95276748,0.172545455 C6.0809626,0.172545455 7.14723902,0.561636364 7.94717398,1.36027273 L8.0086374,1.36027273 L8.0086374,0.790727273 C8.0086374,0.539818182 8.21260488,0.336181818 8.46392195,0.336181818 L10.2194992,0.336181818 Z" id="Fill-6" fill="#002E43" mask="url(#mask-4)"></path>
                </g>
                <path d="M61.127278,9.46327273 L65.5367089,9.46327273 C65.2699122,8.41918182 64.5519285,7.72327273 63.383213,7.72327273 C62.2959935,7.72327273 61.4350504,8.31690909 61.127278,9.46327273 M67.7402862,11.3878182 L61.1067902,11.3878182 C61.4350504,12.5755455 62.3784,13.3128182 63.6700423,13.3128182 C64.5596683,13.3296364 65.2498797,13.0046364 65.775278,12.5041818 C65.9514732,12.3369091 66.2237333,12.3296364 66.4017496,12.4946364 L67.4866927,13.501 C67.6756358,13.6764545 67.6815545,13.9732727 67.5008065,14.1573636 C66.6180098,15.0582727 65.2703675,15.6873636 63.485652,15.6873636 C60.5531642,15.6873636 58.3382049,13.6400909 58.3382049,10.5078182 C58.3382049,7.47736364 60.4507252,5.36827273 63.3008065,5.36827273 C66.2337496,5.36827273 68.2024,7.49781818 68.2024,10.4255455 C68.2024,10.5837273 68.2024,10.7746364 68.1955707,10.9482727 C68.1860098,11.1937273 67.9856846,11.3878182 67.7402862,11.3878182" id="Fill-9" fill="#002E43"></path>
                <path d="M83.2543805,6.13322727 L80.1598114,15.2155 C80.0969821,15.4000455 79.923974,15.5236818 79.7291122,15.5236818 L78.0809821,15.5236818 C77.8774699,15.5236818 77.6989984,15.3891364 77.6434537,15.1941364 L75.9739252,9.36140909 L75.9329496,9.36140909 L74.2634211,15.1941364 C74.2078764,15.3891364 74.0289496,15.5236818 73.8258927,15.5236818 L72.1977951,15.5236818 C72.0029333,15.5236818 71.8299252,15.4005 71.7670959,15.2164091 L68.6543154,6.13413636 C68.552787,5.83913636 68.7722341,5.53231818 69.0850146,5.53231818 L70.8014374,5.53231818 C70.9999415,5.53231818 71.175226,5.66004545 71.2357789,5.84822727 L73.082413,11.6132273 L73.1233886,11.6132273 L74.7724293,5.86140909 C74.827974,5.66686364 75.0069008,5.53231818 75.2099577,5.53231818 L76.6777951,5.53231818 C76.8803967,5.53231818 77.0588683,5.66640909 77.1153236,5.86004545 L78.7834862,11.6132273 L78.8249171,11.6132273 L80.6715512,5.84822727 C80.7321041,5.66004545 80.9073886,5.53231818 81.1054374,5.53231818 L82.8236813,5.53231818 C83.1355512,5.53231818 83.3549984,5.83868182 83.2543805,6.13322727" id="Fill-11" fill="#002E43"></path>
                <path d="M91.578439,10.5281818 C91.578439,8.89 90.471187,7.76409091 88.9737561,7.76409091 C87.4153171,7.76409091 86.3695285,8.95136364 86.3695285,10.5281818 C86.3695285,12.0840909 87.4562927,13.2922727 88.9737561,13.2922727 C90.4302114,13.2922727 91.578439,12.1459091 91.578439,10.5281818 M83.6624065,10.5281818 C83.6624065,7.53909091 85.7954146,5.36818182 88.9737561,5.36818182 C92.0910894,5.36818182 94.3060488,7.45681818 94.3060488,10.5281818 C94.3060488,13.5995455 92.0910894,15.6877273 88.9737561,15.6877273 C85.7954146,15.6877273 83.6624065,13.5172727 83.6624065,10.5281818" id="Fill-13" fill="#002E43"></path>
                <path d="M101.584911,5.38881818 L101.584911,7.82245455 C101.584911,8.07745455 101.375024,8.28063636 101.120065,8.277 C101.025821,8.27609091 100.945236,8.27609091 100.887415,8.27609091 C99.2260813,8.27609091 98.3241626,9.402 98.3241626,10.8760909 L98.3241626,15.0692727 C98.3241626,15.3206364 98.1206504,15.5238182 97.868878,15.5238182 L96.092813,15.5238182 C95.8410407,15.5238182 95.6375285,15.3206364 95.6375285,15.0692727 L95.6375285,5.98654545 C95.6375285,5.73609091 95.8410407,5.532 96.092813,5.532 L97.868878,5.532 C98.1206504,5.532 98.3241626,5.73609091 98.3241626,5.98654545 L98.3241626,7.00654545 L98.3446504,7.00654545 C99.1031545,5.942 100.190374,5.36836364 101.379577,5.36836364 C101.461528,5.36836364 101.54348,5.36836364 101.584911,5.38881818" id="Fill-15" fill="#002E43"></path>
                <path d="M106.997652,12.6575455 L106.956676,12.6575455 L105.062693,15.3316364 C104.977554,15.4520909 104.838693,15.5239091 104.69118,15.5239091 L102.853197,15.5239091 C102.488059,15.5239091 102.271343,15.1157273 102.476221,14.8139091 L105.283506,10.6848182 C105.389587,10.5284545 105.388221,10.3234545 105.280319,10.1689091 L102.534953,6.24709091 C102.324156,5.94572727 102.540416,5.53209091 102.908741,5.53209091 L104.843246,5.53209091 C104.997132,5.53209091 105.141002,5.60981818 105.224774,5.73890909 L106.956676,8.39890909 L106.977164,8.39890909 L108.729554,5.73709091 C108.813327,5.60936364 108.956741,5.53209091 109.109717,5.53209091 L111.026465,5.53209091 C111.394335,5.53209091 111.610595,5.94527273 111.399798,6.24663636 L108.673554,10.1489091 C108.565652,10.303 108.564286,10.508 108.669912,10.6634545 L111.480384,14.8148182 C111.684807,15.1166364 111.468091,15.5239091 111.103408,15.5239091 L109.263603,15.5239091 C109.115636,15.5239091 108.977229,15.4520909 108.891636,15.3316364 L106.997652,12.6575455 Z" id="Fill-17" fill="#002E43"></path>
                <g id="Group-21" transform="translate(0.000000, 0.650545)">
                    <mask id="mask-6" fill="white">
                        <use xlink:href="#path-5"></use>
                    </mask>
                    <g id="Clip-20"></g>
                    <path d="M15.4267707,4.7285 C15.0989659,4.52486364 14.6869333,4.51395455 14.3495675,4.70031818 L3.50605528,10.7016818 C3.17642927,10.8839545 2.76120976,10.7648636 2.57773008,10.4357727 C2.39516098,10.1062273 2.51444553,9.69122727 2.84407154,9.50895455 L11.9911935,4.44668182 C12.7000715,4.05486364 12.7255675,3.04713636 12.0385431,2.61895455 C11.7111935,2.41531818 11.2987057,2.40486364 10.9613398,2.59122727 L3.80517724,6.55168182 C3.47509593,6.73440909 3.05987642,6.61531818 2.87685203,6.28622727 C2.69382764,5.95668182 2.8131122,5.54168182 3.1431935,5.35940909 L8.49051057,2.39986364 C9.24946992,1.97940909 9.27724228,0.899863636 8.54059187,0.441681818 L8.54059187,0.441227273 C8.18956748,0.2235 7.74839675,0.211681818 7.38690081,0.412136364 L0.35958374,4.30077273 C0.143323577,4.42077273 0.00810406504,4.6485 0.00810406504,4.89622727 L-9.10569106e-05,13.2653182 C-0.000546341463,13.6321364 0.188852033,13.9725909 0.500266667,14.1666818 C0.828071545,14.3703182 1.24010407,14.3807727 1.57746992,14.1939545 L12.8985756,7.92895455 C13.2282016,7.74668182 13.6443317,7.86531818 13.8269008,8.19486364 C14.0099252,8.52440909 13.8906407,8.93940909 13.5605593,9.12168182 L3.9358439,14.4485 C3.22696585,14.8403182 3.20101463,15.8480455 3.88849431,16.2757727 C4.2158439,16.4798636 4.62833171,16.4903182 4.96569756,16.3035 L12.5999089,12.0789545 C12.9299902,11.8962273 13.345665,12.0153182 13.5282341,12.3444091 C13.7108033,12.6735 13.591974,13.0889545 13.2618927,13.2716818 L7.43652683,16.4953182 C6.67756748,16.9153182 6.64979512,17.9953182 7.38644553,18.4530455 C7.73701463,18.6716818 8.17864065,18.6830455 8.54013659,18.4830455 L15.5674537,14.5944091 C15.7837138,14.4739545 15.9189333,14.2462273 15.9189333,13.9989545 L15.9271285,5.62895455 C15.9275837,5.26304545 15.7386407,4.92259091 15.4267707,4.7285" id="Fill-19" fill="#FF585D" mask="url(#mask-6)"></path>
                </g>
            </g>
        </g>
    </g>
</svg>