<?xml version="1.0" encoding="utf-8"?>
<!-- Generator: Adobe Illustrator 24.0.1, SVG Export Plug-In . SVG Version: 6.00 Build 0)  -->
<svg version="1.1" id="Layer_1" xmlns="http://www.w3.org/2000/svg" xmlns:xlink="http://www.w3.org/1999/xlink" x="0px" y="0px"
	 viewBox="0 0 234 126.57" style="enable-background:new 0 0 234 126.57;" xml:space="preserve">
<style type="text/css">
	.st0{fill:#D6006E;}
	.st1{fill:#F451AA;}
	.st2{fill:#929497;}
</style>
<g>
	<path class="st0" d="M54.24,34.44v8.82H30.86v10.73h27.21v9.3H19.58V15.43h37.81v9.3H30.86v9.71H54.24z"/>
</g>
<g>
	<path class="st0" d="M166,37.31v25.98h-8.41v-5.13h-0.14c-3.21,4.92-7.86,6.5-14.5,6.5c-20.72,0-23.59-16.34-23.59-25.43
		c0-9.71,3.83-25.16,25.23-25.16c13.88,0,19.69,8.75,20.99,16.89h-11.83c-0.2-1.91-1.3-7.59-9.23-7.59
		c-13.13,0-12.99,13.47-12.99,16.2c0,2.87,0.27,15.79,12.65,15.79c4.92,0,10.46-2.8,11.01-9.37h-9.57v-8.68H166z"/>
</g>
<g>
	<path class="st0" d="M210.24,34.44v8.82h-23.38v10.73h27.21v9.3h-38.49V15.43h37.81v9.3h-26.53v9.71H210.24z"/>
</g>
<g>
	<path class="st1" d="M24.58,99.64v12.66h-4.77V92.07h4.83l7.98,12.58h0.09V92.07h4.77v20.24h-4.86l-7.98-12.66H24.58z"/>
	<path class="st1" d="M70.44,92.07l7.6,20.24h-5.06l-1.3-3.79h-7.34l-1.27,3.79h-5.03l7.57-20.24H70.44z M70.64,105.08l-2.6-7.72
		l-2.66,7.72H70.64z"/>
	<path class="st1" d="M94.99,96v-3.93h17V96h-6.1v16.3h-4.77V96H94.99z"/>
	<path class="st1" d="M137.88,92.07v20.24h-4.77V92.07H137.88z"/>
	<path class="st1" d="M171.94,92.07h5.29l-6.88,20.24h-5.06l-6.85-20.24h5.46l4.11,14.45L171.94,92.07z"/>
	<path class="st1" d="M212.31,100.1v3.73h-9.89v4.54h11.51v3.93h-16.28V92.07h15.99V96h-11.22v4.1H212.31z"/>
</g>
<g>
	<rect x="19.58" y="78.62" class="st2" width="194.49" height="1.79"/>
</g>
<path class="st0" d="M105.09,29.57c-2.48,0-4.73,0.92-6.46,2.43l-14.19-8.2c0-0.12,0.02-0.24,0.02-0.37c0-5.43-4.4-9.82-9.82-9.82
	s-9.82,4.4-9.82,9.82c0,3.81,2.17,7.1,5.34,8.73v18.06c-3.17,1.63-5.34,4.93-5.34,8.73c0,5.43,4.4,9.82,9.82,9.82
	s9.82-4.4,9.82-9.82c0-0.74-0.09-1.47-0.25-2.16l14.56-9.89c1.71,1.43,3.91,2.3,6.31,2.3c5.43,0,9.82-4.4,9.82-9.82
	S110.52,29.57,105.09,29.57z M75.51,49.19V33.22c3-0.26,5.6-1.87,7.22-4.22l12.97,7.5c-0.28,0.92-0.44,1.89-0.44,2.9
	c0,1.08,0.18,2.12,0.5,3.09l-14.13,9.6C80.05,50.46,77.91,49.4,75.51,49.19z"/>
</svg>
