<svg xmlns="http://www.w3.org/2000/svg" xmlns:xlink="http://www.w3.org/1999/xlink" width="105" height="30" viewBox="0 0 105 30"><defs><path id="jh5lb" d="M117.46 86.33c.25-.65.8-1.16 1.47-1.35a2.4 2.4 0 0 1 3.11 2.23 2.38 2.38 0 1 1-4.58-.88m.96 5.24h2.43c.39 0 .7.31.7.7v12.89a.7.7 0 0 1-.7.7h-2.43a.7.7 0 0 1-.7-.7v-12.9c0-.38.32-.69.7-.69"/><path id="jh5lc" d="M123.53 98.7c0-4.27 3.03-7.37 7.55-7.37 4.44 0 7.59 2.98 7.59 7.37 0 4.4-3.15 7.38-7.59 7.38-4.52 0-7.55-3.1-7.55-7.38m11.26 0c0-2.33-1.58-3.95-3.7-3.95-2.22 0-3.71 1.7-3.71 3.96 0 2.23 1.55 3.96 3.7 3.96 2.08 0 3.7-1.65 3.7-3.96"/><path id="jh5ld" d="M141.5 85.07h12.34c.39 0 .7.31.7.7v2.29a.7.7 0 0 1-.7.7h-8.99v5.53h7.39c.38 0 .7.31.7.7v2.29a.7.7 0 0 1-.7.7h-7.39v7.17a.7.7 0 0 1-.7.7h-2.65a.7.7 0 0 1-.7-.7V85.77c0-.39.31-.7.7-.7"/><path id="jh5le" d="M155.21 98.7c0-4.27 3.03-7.37 7.55-7.37 4.44 0 7.59 2.98 7.59 7.37 0 4.4-3.15 7.38-7.59 7.38-4.52 0-7.55-3.1-7.55-7.38m11.26 0c0-2.33-1.58-3.95-3.7-3.95-2.22 0-3.71 1.7-3.71 3.96 0 2.23 1.55 3.96 3.7 3.96 2.08 0 3.7-1.65 3.7-3.96"/><path id="jh5lf" d="M186.04 91.56c.39 0 .7.32.7.7v11.95c0 4.44-1.95 7.66-7.4 7.66-2.03 0-3.8-.4-5.37-1.17a.7.7 0 0 1-.35-.81l.52-1.87a.7.7 0 0 1 .98-.43c1.16.57 2.37.95 3.86.95 2.68 0 4.06-1.44 4.06-3.2v-1.43h-.1a5.43 5.43 0 0 1-4.13 1.67c-3.94 0-6.8-2.87-6.8-7.02 0-4.22 2.77-7.23 6.6-7.23 1.6 0 3.11.56 4.25 1.7h.09v-.77c0-.38.31-.7.7-.7zm-2.95 6.85c0-2.2-1.57-3.6-3.58-3.6a3.45 3.45 0 0 0-3.62 3.63 3.5 3.5 0 0 0 3.62 3.68c2.1 0 3.58-1.55 3.58-3.7z"/><path id="jh5la" d="M82 83.7h25.3v28.86H82z"/><path id="jh5lh" d="M94.65 112.56c-.25 0-.5-.06-.72-.19l-11.2-6.5a1.45 1.45 0 0 1-.73-1.25V91.64c0-.52.28-1 .72-1.25l11.2-6.5a1.45 1.45 0 0 1 1.44 2.5L84.9 92.5v11.3l9.76 5.66 10.49-6.07c.69-.4 1.57-.16 1.97.53.4.7.16 1.58-.53 1.98l-11.2 6.5c-.23.12-.48.18-.73.18"/><path id="jh5li" d="M94.66 106.13a1.45 1.45 0 0 1-.72-2.7l11.2-6.5c.69-.4 1.57-.16 1.97.53.4.7.16 1.58-.53 1.98l-11.2 6.5c-.23.13-.48.19-.72.19"/><path id="jh5lj" d="M99.6 97.35c-.5 0-.98-.26-1.25-.72-.4-.7-.16-1.58.53-1.98l6.26-3.63c.69-.4 1.57-.16 1.97.53.4.7.16 1.58-.53 1.98l-6.25 3.63c-.23.13-.48.2-.72.2"/><path id="jh5lk" d="M94.66 94.3c-.5 0-.99-.25-1.26-.72-.4-.69-.16-1.57.53-1.97l11.2-6.5a1.45 1.45 0 0 1 1.44 2.51l-11.2 6.5c-.22.13-.47.19-.71.19"/><clipPath id="jh5lg"><use xlink:href="#jh5la"/></clipPath></defs><g><g transform="translate(-82 -83)"><g><g><use fill="#5064ec" xlink:href="#jh5lb"/></g><g><use fill="#5064ec" xlink:href="#jh5lc"/></g><g><use fill="#5064ec" xlink:href="#jh5ld"/></g><g><use fill="#5064ec" xlink:href="#jh5le"/></g><g><use fill="#5064ec" xlink:href="#jh5lf"/></g><g><g/><g clip-path="url(#jh5lg)"><use fill="#5064ec" xlink:href="#jh5lh"/></g></g><g><use fill="#5064ec" xlink:href="#jh5li"/></g><g><use fill="#26d6f1" xlink:href="#jh5lj"/></g><g><use fill="#5064ec" xlink:href="#jh5lk"/></g></g></g></g></svg>