<?xml version="1.0" encoding="utf-8"?>
<!-- Generator: Adobe Illustrator 23.0.0, SVG Export Plug-In . SVG Version: 6.00 Build 0)  -->
<svg version="1.1" id="Calque_1" xmlns="http://www.w3.org/2000/svg" xmlns:xlink="http://www.w3.org/1999/xlink" x="0px" y="0px"
	 viewBox="0 0 124.1 110.7" style="enable-background:new 0 0 124.1 110.7;" xml:space="preserve">
<style type="text/css">
	.st0{fill:#6BB151;}
	.st1{fill:#572563;}
</style>
<g>
	<path class="st0" d="M6.3,92.5c4.1,0,6.1,2.1,6.1,6.2c0,0.6,0,1.1-0.1,1.7H3.4c0,1.9,1.4,2.8,4.2,2.8c1.3,0,2.7-0.1,4-0.4v2.7
		c-1.2,0.3-2.6,0.4-4.3,0.4c-4.8,0-7.3-2.3-7.3-6.8C0,94.7,2.1,92.5,6.3,92.5z M3.4,98h5.7v-0.1c0-1.9-0.9-2.8-2.8-2.8
		C4.5,95.1,3.5,96.1,3.4,98z"/>
	<path class="st0" d="M24.8,105.5c-1.1,0.3-2.2,0.4-3.4,0.4c-4.8,0-7.1-2.3-7.1-6.9c0-4.3,2.4-6.4,7.1-6.4c1.2,0,2.3,0.1,3.4,0.4
		v2.7c-1.1-0.3-2.2-0.4-3.2-0.4c-2.7,0-4,1.3-4,3.8c0,2.8,1.3,4.3,4,4.3c1,0,2.1-0.1,3.2-0.4V105.5z"/>
	<path class="st0" d="M30.4,87.6v18.2H27V87.6H30.4z"/>
	<path class="st0" d="M36.9,87.6v2.7h-3.4v-2.7H36.9z M36.9,92.5v13.4h-3.4V92.5H36.9z"/>
	<path class="st0" d="M40.1,93c1.8-0.4,3.6-0.5,5.6-0.5c4.5,0,6.8,2.1,6.8,6.4c0,4.7-2.1,7-6.3,7c-0.9,0-1.8-0.2-2.7-0.6v5.5h-3.4
		V93z M43.5,102.4c0.8,0.5,1.7,0.7,2.7,0.7c2,0,3-1.4,3-4.2c0-2.4-1.1-3.6-3.3-3.6c-1,0-1.8,0.1-2.4,0.2V102.4z"/>
	<path class="st0" d="M55.1,105.2v-2.8c1.5,0.6,3.2,0.9,5.1,0.9c1.5,0,2.2-0.5,2.2-1.4c0-0.9-0.5-1.3-1.5-1.3h-2.4
		c-2.7,0-4.1-1.3-4.1-4c0-2.8,2-4.2,5.9-4.2c1.7,0,3.3,0.3,4.7,0.8v2.8C63.7,95.3,62,95,60.3,95c-1.8,0-2.7,0.5-2.7,1.4
		c0,0.9,0.5,1.3,1.6,1.3h2.2c3,0,4.5,1.3,4.5,4c0,2.8-1.9,4.2-5.7,4.2C58.2,106,56.6,105.7,55.1,105.2z"/>
	<path class="st0" d="M73.8,92.5c4.1,0,6.1,2.1,6.1,6.2c0,0.6,0,1.1-0.1,1.7h-8.9c0,1.9,1.4,2.8,4.2,2.8c1.3,0,2.7-0.1,4-0.4v2.7
		c-1.2,0.3-2.6,0.4-4.3,0.4c-4.8,0-7.3-2.3-7.3-6.8C67.5,94.7,69.6,92.5,73.8,92.5z M70.9,98h5.7v-0.1c0-1.9-0.9-2.8-2.8-2.8
		C72,95.1,71,96.1,70.9,98z"/>
	<path class="st0" d="M85.5,102.7v3.1h-3.4v-3.1H85.5z"/>
	<path class="st0" d="M87.7,99.2c0-4.5,2.2-6.7,6.6-6.7c4.4,0,6.6,2.2,6.6,6.7c0,4.5-2.2,6.7-6.6,6.7
		C89.9,105.9,87.7,103.6,87.7,99.2z M94.3,103.3c2.2,0,3.2-1.4,3.2-4.2c0-2.7-1.1-4.1-3.2-4.1c-2.2,0-3.2,1.4-3.2,4.1
		C91.1,101.9,92.1,103.3,94.3,103.3z"/>
	<path class="st0" d="M103.5,105.8V92.5h2.6l0.4,1.7c1.2-1.1,2.4-1.7,3.7-1.7v2.7c-1.3,0-2.4,0.5-3.4,1.6v9.1H103.5z"/>
	<path class="st0" d="M124.1,104.8c0,3.9-2.3,5.9-7,5.9c-1.6,0-3.1-0.2-4.4-0.6v-2.7c1.3,0.4,2.8,0.6,4.4,0.6c2.4,0,3.6-1,3.6-3.1
		c-1,0.4-2.1,0.6-3.2,0.6c-4,0-6-2.2-6-6.5c0-4.4,2.3-6.6,6.9-6.6c1.6,0,3.4,0.2,5.6,0.5V104.8z M120.7,95.5
		c-0.6-0.2-1.3-0.3-2.4-0.3c-2.3,0-3.5,1.3-3.5,3.9c0,2.5,1,3.7,3,3.7c1,0,1.9-0.2,2.8-0.7V95.5z"/>
</g>
<g>
	<rect x="10.6" y="13.9" class="st1" width="9.9" height="10.9"/>
	<path class="st1" d="M28.9,72.2h-8.4v-38c0-1.4-1.1-2.6-2.6-2.6H7.7v10.2h2.7v30.4H2.2v10.1h35.3C33.8,79.8,30.8,76.3,28.9,72.2"/>
	<path class="st1" d="M123.3,41.8V31.6h-17.7V13.9H95.5v17.7H78.3c3.8,2.5,6.8,6,8.7,10.2h8.4v20.2c0,11.1,9.1,20.3,20.2,20.3h7.6
		V72.2h-7.6c-5.6,0-10.1-4.6-10.1-10.1V41.8H123.3z"/>
	<path class="st1" d="M63,31.6H52.9c-11.1,0-20.3,9.1-20.3,20.3v10.1c0,11.1,9.1,20.3,20.3,20.3h7.2h3c11.1,0,20.3-9.1,20.3-20.3
		V51.9C83.3,40.7,74.1,31.6,63,31.6 M73.1,62.1c0,5.6-4.6,10.1-10.1,10.1H52.9c-5.6,0-10.1-4.6-10.1-10.1V51.9
		c0-5.6,4.6-10.1,10.1-10.1H63c5.6,0,10.1,4.6,10.1,10.1V62.1z"/>
</g>
<g>
	<rect x="69" y="10.4" transform="matrix(0.7089 -0.7053 0.7053 0.7089 9.7107 58.9815)" class="st0" width="14.6" height="14.6"/>
	<rect x="63.7" y="1.5" transform="matrix(0.7087 -0.7055 0.7055 0.7087 15.9773 49.047)" class="st0" width="7.3" height="7.3"/>
	<rect x="44.9" y="15" transform="matrix(0.7086 -0.7056 0.7056 0.7086 1.803 37.7018)" class="st0" width="3.3" height="3.3"/>
	<rect x="47.6" y="21.8" transform="matrix(0.7332 -0.68 0.68 0.7332 -2.685 39.6107)" class="st0" width="3" height="2.8"/>
	<polygon class="st0" points="35.7,14.2 38.5,17 41.3,14.2 38.5,11.4 	"/>
	<polygon class="st0" points="28.3,14.9 30.1,16.6 31.8,14.8 30,13.1 	"/>
	<rect x="32.8" y="17.3" transform="matrix(0.6834 -0.73 0.73 0.6834 -2.8533 30.8755)" class="st0" width="2.8" height="2.8"/>
	<rect x="28.4" y="20.6" transform="matrix(0.6615 -0.7499 0.7499 0.6615 -6.2771 29.4557)" class="st0" width="2.2" height="2.2"/>
	<rect x="27.6" y="17.4" transform="matrix(0.6833 -0.7302 0.7302 0.6833 -4.2698 26.5625)" class="st0" width="1.7" height="1.7"/>
	<polygon class="st0" points="49.1,12.8 51,14.8 53,12.8 51,10.9 	"/>
	<rect x="39.2" y="18.5" transform="matrix(0.7092 -0.705 0.705 0.7092 -2.3714 34.7012)" class="st0" width="3.4" height="3.4"/>
	<rect x="54.5" y="4.6" transform="matrix(0.7085 -0.7057 0.7057 0.7085 11.5665 42.3005)" class="st0" width="5" height="5"/>
	<rect x="60.2" y="11.6" transform="matrix(0.7084 -0.7058 0.7058 0.7084 8.4634 48.1181)" class="st0" width="4.5" height="4.5"/>
	<rect x="51.4" y="16.4" transform="matrix(0.7494 -0.6622 0.6622 0.7494 0.6057 41.2639)" class="st0" width="6.9" height="6.9"/>
</g>
</svg>
