<svg xmlns="http://www.w3.org/2000/svg" width="142.038" height="33.43" viewBox="0 0 142.038 33.43">
  <g id="logo-redhat" transform="translate(0)">
    <path id="Path_615" data-name="Path 615" d="M29.477,871.352c2.9,0,7.106-.6,7.106-4.054a3.3,3.3,0,0,0-.071-.794l-1.729-7.513c-.4-1.651-.751-2.405-3.654-3.853-2.253-1.152-7.157-3.053-8.608-3.053-1.351,0-1.752,1.751-3.353,1.751-1.551,0-2.7-1.3-4.154-1.3-1.4,0-2.3.95-3,2.9,0,0-1.952,5.5-2.2,6.305a1.438,1.438,0,0,0-.052.451c0,2.139,8.426,9.159,19.72,9.159m7.556-2.653a11.573,11.573,0,0,1,.4,2.352c0,3.254-3.654,5.055-8.458,5.055-10.86,0-20.368-6.356-20.368-10.56a4.265,4.265,0,0,1,.349-1.7c-3.9.2-8.958.9-8.958,5.353,0,7.306,17.315,16.315,31.028,16.315,10.51,0,13.159-4.755,13.159-8.508,0-2.953-2.552-6.3-7.156-8.308" transform="translate(0 -852.085)" fill="#a9b2bc"/>
    <path id="Path_616" data-name="Path 616" d="M1004.828,996.76c0,2.759,1.66,4.1,4.688,4.1a12.145,12.145,0,0,0,2.759-.39v-3.2a5.735,5.735,0,0,1-1.781.268c-1.246,0-1.709-.391-1.709-1.561v-4.908h3.613v-3.3h-3.613V983.6l-3.956.853v3.321h-2.612v3.3h2.612Zm-12.29.071c0-.853.855-1.269,2.147-1.269a9.943,9.943,0,0,1,2.345.293v1.66a4.99,4.99,0,0,1-2.467.61c-1.268,0-2.025-.488-2.025-1.294m1.207,4.077a6.037,6.037,0,0,0,3.565-1v.778h3.905v-8.277c0-3.15-2.122-4.881-5.66-4.881a14.371,14.371,0,0,0-6.03,1.415l1.415,2.9a10.553,10.553,0,0,1,3.905-1.025c1.636,0,2.467.637,2.467,1.928v.637a11.506,11.506,0,0,0-2.93-.366c-3.32,0-5.323,1.392-5.323,3.882,0,2.271,1.807,4,4.688,4m-21.461-.219h4.2V994h7.031v6.69h4.2V983.6h-4.2v6.567h-7.031V983.6h-4.2Zm-16-6.47a3.271,3.271,0,0,1,3.4-3.271,4.006,4.006,0,0,1,2.735,1v4.516a3.8,3.8,0,0,1-2.735,1.025,3.285,3.285,0,0,1-3.4-3.272m6.177,6.47h3.906v-17.94l-3.955.855v4.858a6.655,6.655,0,1,0-3.418,12.4,5.82,5.82,0,0,0,3.467-1.123Zm-17.923-9.906a2.857,2.857,0,0,1,2.714,2.052h-5.4a2.689,2.689,0,0,1,2.688-2.052m-6.665,3.467a6.782,6.782,0,0,0,7.031,6.69,7.749,7.749,0,0,0,5.4-1.954l-2.612-2.32a3.5,3.5,0,0,1-2.588.978,3.339,3.339,0,0,1-3.175-2.052h9.205v-.976c0-4.1-2.759-7.056-6.519-7.056a6.634,6.634,0,0,0-6.744,6.69m-6.811-7.056a1.943,1.943,0,1,1,0,3.858h-4.151v-3.858Zm-8.348,13.5h4.2v-6.226h3.2l3.224,6.226h4.686l-3.759-6.835a5.173,5.173,0,0,0,3.224-4.811c0-3.076-2.418-5.447-6.032-5.447h-8.742Z" transform="translate(-870.359 -975.332)" fill="#a9b2bc"/>
  </g>
</svg>
