<svg xmlns="http://www.w3.org/2000/svg" width="66.512" height="66.511" viewBox="0 0 66.512 66.511">
  <g id="logo-orange" transform="translate(0)">
    <rect id="Rectangle_60" data-name="Rectangle 60" width="66.512" height="66.511" transform="translate(0)" fill="#a9b2bc"/>
    <path id="Path_607" data-name="Path 607" d="M327.747,274.531h2.425v.422h-.95V277.6H328.7v-2.648h-.95C327.743,274.813,327.744,274.672,327.747,274.531Zm0,0" transform="translate(-270.138 -226.66)" fill="#fff"/>
    <path id="Path_608" data-name="Path 608" d="M345.055,274.535h.793c.3.768.6,1.534.9,2.3.3-.766.594-1.532.886-2.3h.787c0,1.022,0,2.045,0,3.067h-.516q0-1.262,0-2.523c-.339.836-.661,1.682-.995,2.521h-.335c-.331-.836-.644-1.68-.991-2.512-.011.838,0,1.675-.005,2.512h-.518Q345.052,276.069,345.055,274.535Zm0,0" transform="translate(-284.417 -226.664)" fill="#fff"/>
    <path id="Path_609" data-name="Path 609" d="M24.775,293.171a4.805,4.805,0,0,1,3.033.811,4.194,4.194,0,0,1,1.568,2.213,6.762,6.762,0,0,1,.184,2.915,4.7,4.7,0,0,1-.988,2.308,4.209,4.209,0,0,1-2.406,1.413,5.235,5.235,0,0,1-3.009-.248,4.051,4.051,0,0,1-1.917-1.61,5.434,5.434,0,0,1-.739-2.979,5.19,5.19,0,0,1,.919-3.123,4.359,4.359,0,0,1,3.356-1.7m-.1,2.093a1.794,1.794,0,0,0-1.247.764,3.5,3.5,0,0,0-.5,1.847,3.99,3.99,0,0,0,.426,2.086,1.788,1.788,0,0,0,1.176.853,2.24,2.24,0,0,0,1.779-.318,2.355,2.355,0,0,0,.8-1.435,5.378,5.378,0,0,0,.024-1.883,2.492,2.492,0,0,0-.743-1.494,2.133,2.133,0,0,0-1.717-.422Zm0,0" transform="translate(-16.683 -242.03)" fill="#fff"/>
    <path id="Path_610" data-name="Path 610" d="M84.443,294.748a3.462,3.462,0,0,1,2.864-1.248v2.3a4.792,4.792,0,0,0-2.037.333,1.269,1.269,0,0,0-.653.663c-.01,2.05,0,4.1,0,6.151H82.129v-9.265c.772-.007,1.544,0,2.316,0Q84.445,294.21,84.443,294.748Zm0,0" transform="translate(-67.521 -242.299)" fill="#fff"/>
    <path id="Path_611" data-name="Path 611" d="M117.956,293.719a6.6,6.6,0,0,1,2.938-.187,3.323,3.323,0,0,1,2.189,1.144,2.637,2.637,0,0,1,.475,1.807c0,2.142-.014,4.285.012,6.427H121.4c-.068-.268-.142-.535-.212-.8a5.49,5.49,0,0,1-2.1.834,3.893,3.893,0,0,1-2.259-.19,2.4,2.4,0,0,1-1.29-1.469,2.919,2.919,0,0,1,.239-2.386,3.666,3.666,0,0,1,1.705-1.33,13.442,13.442,0,0,1,3.717-.858c-.01-.379.068-.815-.2-1.129a1.826,1.826,0,0,0-1.568-.418,2.783,2.783,0,0,0-1.919,1.046c-.552-.313-1.105-.625-1.653-.946a4.1,4.1,0,0,1,2.1-1.544m.992,4.983a2,2,0,0,0-.976.763,1.351,1.351,0,0,0,.136,1.552,1.019,1.019,0,0,0,.762.321,3.387,3.387,0,0,0,2.257-.976c0-.723,0-1.446,0-2.168a8.429,8.429,0,0,0-2.185.508Zm0,0" transform="translate(-94.958 -242.267)" fill="#fff"/>
    <path id="Path_612" data-name="Path 612" d="M177.509,293.447a3.919,3.919,0,0,1,2.338.21A2.218,2.218,0,0,1,181,294.942a4.03,4.03,0,0,1,.221,1.3v6.585h-2.444v-6.189a1.851,1.851,0,0,0-.331-1.172,1.277,1.277,0,0,0-1.106-.282,3.97,3.97,0,0,0-1.985,1.007v6.633h-2.427v-9q1.014-.143,2.03-.281c.064.363.147.724.217,1.086A6.262,6.262,0,0,1,177.509,293.447Zm0,0" transform="translate(-142.423 -242.194)" fill="#fff"/>
    <path id="Path_613" data-name="Path 613" d="M230.707,294.836a3.409,3.409,0,0,1,2.453-1.415,4.263,4.263,0,0,1,1.861.261,1.988,1.988,0,0,1,1.075.93c.06-.339.126-.679.18-1.022.688-.018,1.377,0,2.065-.007v9.169a3.72,3.72,0,0,1-.852,2.536,4.318,4.318,0,0,1-2.765,1.136,5.843,5.843,0,0,1-3.412-.527,2.6,2.6,0,0,1-1.329-1.745l2.408-.388a1.008,1.008,0,0,0,.386.615,2.567,2.567,0,0,0,1.457.289,1.739,1.739,0,0,0,1.3-.491,2.278,2.278,0,0,0,.448-1.479c0-.39.01-.78-.009-1.17a2.759,2.759,0,0,1-.95,1.014,3.32,3.32,0,0,1-1.969.3,3.454,3.454,0,0,1-2.358-1.276,5.188,5.188,0,0,1-.973-3.2,5.735,5.735,0,0,1,.98-3.53m2.976.339a1.583,1.583,0,0,0-.919.536,2.715,2.715,0,0,0-.561,1.4,7.719,7.719,0,0,0-.006,1.722,2.653,2.653,0,0,0,.607,1.579,1.557,1.557,0,0,0,1.2.454,1.746,1.746,0,0,0,1.29-.483,2.6,2.6,0,0,0,.625-1.4,7.4,7.4,0,0,0,.079-1.461,2.861,2.861,0,0,0-.711-1.845,1.793,1.793,0,0,0-1.6-.5Zm0,0" transform="translate(-189.278 -242.234)" fill="#fff"/>
    <path id="Path_614" data-name="Path 614" d="M288.314,294.727a3.864,3.864,0,0,1,2.527-1.319,4.8,4.8,0,0,1,3.162.6,3.8,3.8,0,0,1,1.538,2.119,6.58,6.58,0,0,1,.244,2.432h-6.132a3.377,3.377,0,0,0,.436,1.8,1.786,1.786,0,0,0,1.252.783,2.6,2.6,0,0,0,1.549-.2,2.851,2.851,0,0,0,1.018-.955q.893.5,1.792,1a3.99,3.99,0,0,1-2.64,1.86,5.782,5.782,0,0,1-3.343-.189,3.673,3.673,0,0,1-1.9-1.765,6.409,6.409,0,0,1-.543-3.3,4.994,4.994,0,0,1,1.043-2.869m1.906.844a2.356,2.356,0,0,0-.53,1.4h3.726a2.141,2.141,0,0,0-.464-1.392,1.878,1.878,0,0,0-1.556-.551,1.706,1.706,0,0,0-1.177.542Zm0,0" transform="translate(-236.732 -242.195)" fill="#fff"/>
  </g>
</svg>
