<svg xmlns="http://www.w3.org/2000/svg" width="192.807" height="32.214" viewBox="0 0 192.807 32.214">
  <g id="logo-edgeworx" transform="translate(0)">
    <g id="c" transform="translate(0 0)">
      <g id="Group_12" data-name="Group 12">
        <path id="Path_4" data-name="Path 4" d="M25.851,7.393h0a1.785,1.785,0,0,0-1.8-.05L5.875,17.318a1.146,1.146,0,0,1-1.55-.45,1.131,1.131,0,0,1,.425-1.525h0L20.076,6.918a1.742,1.742,0,0,0,.075-3.025,1.785,1.785,0,0,0-1.8-.05l-11.975,6.6a1.146,1.146,0,0,1-1.55-.45A1.131,1.131,0,0,1,5.25,8.468h0l8.975-4.925a1.884,1.884,0,0,0,.75-2.55,1.817,1.817,0,0,0-.675-.7,1.9,1.9,0,0,0-1.925-.05L.6,6.693a1.168,1.168,0,0,0-.6,1v13.9a1.76,1.76,0,0,0,.825,1.5,1.785,1.785,0,0,0,1.8.05L21.6,12.743a1.146,1.146,0,0,1,1.55.45,1.131,1.131,0,0,1-.425,1.525h0L6.6,23.568a1.742,1.742,0,0,0-.075,3.025,1.785,1.785,0,0,0,1.8.05l12.8-7.025a1.146,1.146,0,0,1,1.55.45,1.131,1.131,0,0,1-.425,1.525h0L12.5,26.969a1.884,1.884,0,0,0-.75,2.55,1.817,1.817,0,0,0,.675.7,1.9,1.9,0,0,0,1.925.05l11.775-6.45a1.119,1.119,0,0,0,.6-1V8.893a1.76,1.76,0,0,0-.825-1.5Z" transform="translate(0 -0.005)" fill="#a9b2bc"/>
        <path id="Path_5" data-name="Path 5" d="M24.015,2.94a8.719,8.719,0,0,0-9.025,9.025c0,5.1,3.625,9.025,9.375,9.025a8.638,8.638,0,0,0,7.45-3.65l-3.55-2.05a4.71,4.71,0,0,1-3.825,1.7c-2.325,0-4.2-.95-4.825-3.225h12.9a10.463,10.463,0,0,0,.175-1.8c0-5.025-3.6-9.025-8.65-9.025ZM19.54,10.365a4.261,4.261,0,0,1,4.475-3.45,4.166,4.166,0,0,1,4.25,3.45H19.54Z" transform="translate(22.486 4.398)" fill="#a9b2bc"/>
        <path id="Path_6" data-name="Path 6" d="M36.69,9.25a6.647,6.647,0,0,0-5.55-2.5c-4.575,0-8.35,3.925-8.35,9.025S26.54,24.8,31.14,24.8a6.681,6.681,0,0,0,5.55-2.5v2.025h4.4V.4h-4.4ZM31.965,20.6a4.6,4.6,0,0,1-4.75-4.825,4.738,4.738,0,1,1,9.475,0A4.6,4.6,0,0,1,31.965,20.6Z" transform="translate(34.187 0.588)" fill="#a9b2bc"/>
        <path id="Path_7" data-name="Path 7" d="M45.3,5.54a6.568,6.568,0,0,0-5.475-2.6A8.586,8.586,0,0,0,31.3,11.69a8.57,8.57,0,0,0,8.525,8.75,6.568,6.568,0,0,0,5.475-2.6v1.85c0,2.7-1.7,4.2-4.475,4.2s-3.75-1.05-4.475-2.4l-3.75,2.15c1.5,2.775,4.45,4.175,8.1,4.175,4.525,0,8.925-2.525,8.925-8.15V3.415h-4.3V5.54ZM40.5,16.39a4.578,4.578,0,0,1-4.8-4.675,4.558,4.558,0,0,1,4.8-4.65,4.572,4.572,0,0,1,4.8,4.65A4.592,4.592,0,0,1,40.5,16.39Z" transform="translate(46.953 4.398)" fill="#a9b2bc"/>
        <path id="Path_8" data-name="Path 8" d="M48.825,2.94A8.719,8.719,0,0,0,39.8,11.965c0,5.1,3.625,9.025,9.375,9.025a8.638,8.638,0,0,0,7.45-3.65l-3.55-2.05a4.71,4.71,0,0,1-3.825,1.7c-2.325,0-4.2-.95-4.825-3.225h12.9a10.463,10.463,0,0,0,.175-1.8c0-5.025-3.6-9.025-8.65-9.025ZM44.35,10.365a4.261,4.261,0,0,1,4.475-3.45,4.166,4.166,0,0,1,4.25,3.45Z" transform="translate(59.703 4.398)" fill="#a9b2bc"/>
        <path id="Path_9" data-name="Path 9" d="M65.086,13.655,61.986,3.13H57.81l-3.125,10.5-2.9-10.5H47.11l5.425,17.1h4.2l3.15-10.35,3.15,10.35h4.2l5.45-17.1h-4.7Z" transform="translate(70.669 4.683)" fill="#a9b2bc"/>
        <path id="Path_10" data-name="Path 10" d="M66.625,2.94A8.927,8.927,0,0,0,57.6,11.965a9.038,9.038,0,0,0,18.076,0,8.948,8.948,0,0,0-9.05-9.025Zm0,13.75A4.547,4.547,0,0,1,62,11.965a4.638,4.638,0,1,1,9.275,0A4.553,4.553,0,0,1,66.625,16.69Z" transform="translate(86.405 4.398)" fill="#a9b2bc"/>
        <path id="Path_11" data-name="Path 11" d="M70.41,6.29V3.34h-4.4v17.1h4.4V12.265c0-3.6,2.9-4.625,5.2-4.35V2.99a5.272,5.272,0,0,0-5.2,3.275Z" transform="translate(99.021 4.473)" fill="#a9b2bc"/>
        <path id="Path_12" data-name="Path 12" d="M81.42,11.48l6-8.35H82.345L78.9,7.955,75.445,3.13h-5.1l5.975,8.375-6.25,8.725h5.1l3.725-5.2,3.7,5.2h5.1Z" transform="translate(105.111 4.683)" fill="#a9b2bc"/>
      </g>
    </g>
  </g>
</svg>
