<svg id="logo-VMware" xmlns="http://www.w3.org/2000/svg" xmlns:xlink="http://www.w3.org/1999/xlink" width="145" height="23.241" viewBox="0 0 145 23.241">
  <defs>
    <clipPath id="clip-path">
      <rect id="Rectangle_13" data-name="Rectangle 13" width="145" height="23.241" fill="#a9b2bc"/>
    </clipPath>
  </defs>
  <g id="Group_29" data-name="Group 29" transform="translate(0 0)" clip-path="url(#clip-path)">
    <path id="Path_13" data-name="Path 13" d="M11.149,15.176C12.236,12.5,13.266,9.958,14.3,7.421c.427-1.046.839-2.1,1.3-3.13A6.873,6.873,0,0,1,27.054,2.276c.6.629.885.46,1.408.028a8.552,8.552,0,0,1,8.6-1.789A5.516,5.516,0,0,1,39.72,2.274c.5.627.771.506,1.319.052C43.8.041,46.888-.722,50.2.767A6.907,6.907,0,0,1,54.416,7.4c.057,4.1.025,8.193.01,12.29-.008,2.259-1.391,3.617-3.495,3.482-1.585-.1-2.7-1.48-2.717-3.462-.026-3.364-.008-6.728-.008-10.092,0-.271.013-.544-.006-.813a3.061,3.061,0,0,0-2.683-3.073A3.112,3.112,0,0,0,41.931,8a5.589,5.589,0,0,0-.138,1.532c0,3.337.006,6.673,0,10.011-.005,1.876-.835,3.148-2.281,3.545a3,3,0,0,1-3.87-2.576,8.6,8.6,0,0,1-.1-1.375c-.008-3.364,0-6.728-.006-10.092a3.022,3.022,0,0,0-1.637-2.991,3.243,3.243,0,0,0-3.6.364A3.465,3.465,0,0,0,29.12,9.375c0,3.473.015,6.946-.007,10.419a3.071,3.071,0,0,1-3.262,3.385c-1.756-.028-2.944-1.437-2.952-3.564-.014-4.068,0-8.138,0-12.208,0-.217,0-.434,0-.651a.912.912,0,0,0-.657-.982.841.841,0,0,0-1.065.578q-.957,2.176-1.908,4.357c-1.305,2.978-2.6,5.962-3.924,8.931a11.874,11.874,0,0,1-1.01,1.827,3.771,3.771,0,0,1-6.355.068,19.015,19.015,0,0,1-1.788-3.6Q3.279,11.333.379,4.725C-.443,2.852.1,1.108,1.728.339,3.427-.464,5.1.3,5.88,2.242q2.448,6.06,4.9,12.12c.09.223.2.439.369.813" transform="translate(0 0)" fill="#a9b2bc" fill-rule="evenodd"/>
    <path id="Path_14" data-name="Path 14" d="M203.973,7.188,201.6,14.281q-1.388,4.138-2.777,8.277c-.35,1.04-.854,1.488-1.691,1.522a1.833,1.833,0,0,1-1.86-1.432q-3.225-9.36-6.416-18.73a1.614,1.614,0,1,1,3.033-1q2.452,7.361,4.869,14.734c.108.329.225.655.39,1.134L199.4,12q1.477-4.45,2.957-8.9c.4-1.182.787-1.5,1.755-1.486.924.013,1.36.385,1.74,1.537q2.391,7.254,4.773,14.511c.109.331.228.659.389,1.12.824-2.467,1.609-4.81,2.39-7.154q1.446-4.332,2.887-8.665c.212-.642.511-1.2,1.221-1.327a1.545,1.545,0,0,1,1.774,2.135c-.511,1.618-1.1,3.211-1.65,4.816q-2.364,6.877-4.726,13.755c-.044.127-.087.254-.138.379a1.857,1.857,0,0,1-1.831,1.361,1.773,1.773,0,0,1-1.684-1.431c-.753-2.247-1.489-4.5-2.234-6.753q-1.347-4.067-2.7-8.13c-.064-.191-.049-.446-.347-.578" transform="translate(-132.981 -1.087)" fill="#a9b2bc" fill-rule="evenodd"/>
    <path id="Path_15" data-name="Path 15" d="M307.88,20.508a9.017,9.017,0,0,1-5.185,3.37c-3.1.644-6.022.278-8.4-2.119A6.681,6.681,0,0,1,295.5,11.611a10.208,10.208,0,0,1,4.889-1.433,20.022,20.022,0,0,1,6.775.691c.646.183.727-.01.723-.617-.016-3.381-1.949-5.572-5.178-5.8a11.436,11.436,0,0,0-5.852.923,1.351,1.351,0,0,1-1.888-.743,1.4,1.4,0,0,1,.666-1.854,13.432,13.432,0,0,1,11.168-.293c2.5,1.092,3.687,3.32,4,6.048.324,2.862.094,5.743.139,8.615.025,1.681.017,3.364,0,5.045-.01,1.046-.52,1.692-1.351,1.787a1.5,1.5,0,0,1-1.705-1.546c-.025-.567,0-1.138,0-1.929m-5.895-7.925a7.747,7.747,0,0,0-4.607,1.212,4.124,4.124,0,0,0-.17,6.487,6.15,6.15,0,0,0,5.325,1.08c2.484-.5,4.463-1.737,5.234-4.466a12.281,12.281,0,0,0,.156-2.67.73.73,0,0,0-.646-.892,24.423,24.423,0,0,0-5.292-.751" transform="translate(-206.108 -0.972)" fill="#a9b2bc" fill-rule="evenodd"/>
    <path id="Path_16" data-name="Path 16" d="M417.687,13.961c-2.307,0-4.615.015-6.922-.011-.573-.007-.708.169-.595.752.556,2.881,1.927,5.13,4.673,6.087a7.642,7.642,0,0,0,8.037-1.8,1.714,1.714,0,0,1,1.289-.64,1.3,1.3,0,0,1,1.182.913,1.426,1.426,0,0,1-.382,1.555,10.137,10.137,0,0,1-5.3,3.039,10.013,10.013,0,0,1-9.4-2.558,10.657,10.657,0,0,1-3.167-6.366c-.55-3.866.151-7.424,2.747-10.354a8.846,8.846,0,0,1,9.5-2.837c3.637.987,5.651,3.713,6.617,7.385a11.2,11.2,0,0,1,.362,2.976c-.012,1.34-.49,1.852-1.8,1.856-2.282.006-4.563,0-6.845,0m-1.047-2.482H421.3c2.147,0,2.147,0,1.555-2.164-1.071-3.907-4.414-5.995-7.88-4.88-2.89.929-4.434,3.743-4.845,6.59-.081.555.305.451.6.452q2.953.007,5.909,0" transform="translate(-286.748 -0.936)" fill="#a9b2bc" fill-rule="evenodd"/>
    <path id="Path_17" data-name="Path 17" d="M370.8,6.627a9.4,9.4,0,0,1,4.227-4.343,6.154,6.154,0,0,1,2.915-.737,1.482,1.482,0,0,1,1.536,1.392,1.6,1.6,0,0,1-1.2,1.893c-.376.1-.766.134-1.143.23-3.487.884-5.813,3.738-6.234,7.71-.333,3.134-.077,6.282-.151,9.422-.028,1.216-.862,1.977-1.913,1.737a1.543,1.543,0,0,1-1.22-1.72c-.008-2.385,0-4.771,0-7.155q0-5.814,0-11.628c0-1.173.607-1.941,1.525-1.948.982-.007,1.605.746,1.61,1.955,0,.976,0,1.952.006,2.927,0,.027.009.054.043.266" transform="translate(-259.047 -1.022)" fill="#a9b2bc" fill-rule="evenodd"/>
    <path id="Path_18" data-name="Path 18" d="M478.615,4.19a2.593,2.593,0,1,1-5.18.015,2.638,2.638,0,0,1,2.593-2.749,2.6,2.6,0,0,1,2.586,2.734m-2.571-2.168a2.116,2.116,0,0,0-2.093,2.14,2.2,2.2,0,0,0,2.1,2.246,2.267,2.267,0,0,0,2.068-2.216,2.137,2.137,0,0,0-2.071-2.171" transform="translate(-333.615 -1.006)" fill="#a9b2bc" fill-rule="evenodd"/>
    <path id="Path_19" data-name="Path 19" d="M479.6,5.782c1.262.009,1.555.469,1.038,1.538-.138.287.029.393.12.561s.18.364-.015.5c-.176.12-.343.021-.467-.144-.1-.127-.192-.256-.3-.375-.251-.284-.5-.527-.57.123-.024.232-.075.452-.353.422-.3-.033-.239-.3-.245-.5-.009-.379.024-.76-.009-1.135-.061-.719.067-1.209.8-.981m.713.87a.482.482,0,0,0-.531-.33c-.253,0-.373.092-.372.369s.149.365.389.351.453-.079.514-.39" transform="translate(-337.385 -3.956)" fill="#a9b2bc" fill-rule="evenodd"/>
    <path id="Path_20" data-name="Path 20" d="M481.79,7.982c-.061.311-.27.375-.514.39s-.389-.061-.389-.351.119-.372.372-.369a.482.482,0,0,1,.531.33" transform="translate(-338.866 -5.287)" fill="#a9b2bc" fill-rule="evenodd"/>
  </g>
</svg>
