<svg xmlns="http://www.w3.org/2000/svg" xmlns:xlink="http://www.w3.org/1999/xlink" width="18" height="20" viewBox="0 0 18 20"><defs><path id="i72da" d="M523.86 2626.61l-6.08 6.09a4.23 4.23 0 0 1-5.99.1 4.23 4.23 0 0 1 .11-5.98l7.95-7.94a2.59 2.59 0 0 1 3.65-.07c1 1 .97 2.63-.06 3.66l-7.95 7.94a.94.94 0 0 1-1.33.03.94.94 0 0 1 .03-1.33l6.07-6.08a.94.94 0 0 0 .03-1.33.94.94 0 0 0-1.33.03l-6.08 6.07a2.82 2.82 0 0 0-.07 4 2.82 2.82 0 0 0 3.99-.08l7.94-7.95a4.47 4.47 0 0 0 .12-6.31 4.47 4.47 0 0 0-6.32.11l-7.94 7.95a6.11 6.11 0 0 0-.16 8.64 6.11 6.11 0 0 0 8.64-.16l6.09-6.08a.94.94 0 0 0 .02-1.33.94.94 0 0 0-1.33.02z"/></defs><g><g transform="translate(-509 -2616)"><use fill="#5064ec" xlink:href="#i72da"/></g></g></svg>