<svg xmlns="http://www.w3.org/2000/svg" xmlns:xlink="http://www.w3.org/1999/xlink" width="23" height="20" viewBox="0 0 23 20"><defs><path id="rp6ia" d="M24 25a1 1 0 0 1 1-1h21a1 1 0 0 1 0 2H25a1 1 0 0 1-1-1z"/><path id="rp6ib" d="M24 34a1 1 0 0 1 1-1h21a1 1 0 0 1 0 2H25a1 1 0 0 1-1-1z"/><path id="rp6ic" d="M24 43a1 1 0 0 1 1-1h14.87a1 1 0 0 1 0 2H25a1 1 0 0 1-1-1z"/></defs><g><g transform="translate(-24 -24)"><g><use fill="#5064ec" xlink:href="#rp6ia"/></g><g><use fill="#5064ec" xlink:href="#rp6ib"/></g><g><use fill="#5064ec" xlink:href="#rp6ic"/></g></g></g></svg>