<?xml version="1.0" encoding="UTF-8"?>
<svg width="17px" height="16px" viewBox="0 0 17 16" version="1.1" xmlns="http://www.w3.org/2000/svg" xmlns:xlink="http://www.w3.org/1999/xlink">
    <!-- Generator: Sketch 51.3 (57544) - http://www.bohemiancoding.com/sketch -->
    <title>Group 3</title>
    <desc>Created with Sketch.</desc>
    <defs>
        <polygon id="path-1" points="0 -3.55271368e-15 16.2895 -3.55271368e-15 16.2895 15.8873 0 15.8873"></polygon>
    </defs>
    <g id="Symbols" stroke="none" stroke-width="1" fill="none" fill-rule="evenodd">
        <g id="Footer/Desktop/ioFog" transform="translate(-1030.000000, -70.000000)">
            <g id="Group-3" transform="translate(1030.000000, 70.000000)">
                <mask id="mask-2" fill="white">
                    <use xlink:href="#path-1"></use>
                </mask>
                <g id="Clip-2"></g>
                <path d="M8.1443,-3.55271368e-15 C3.6468,-3.55271368e-15 -0.0002,3.6465 -0.0002,8.1455 C-0.0002,11.7435 2.3333,14.796 5.5703,15.8735 C5.9778,15.948 6.1263,15.6965 6.1263,15.4805 C6.1263,15.2875 6.1193,14.775 6.1153,14.0955 C3.8498,14.5875 3.3718,13.0035 3.3718,13.0035 C3.0013,12.0625 2.4673,11.8125 2.4673,11.8125 C1.7278,11.307 2.5233,11.317 2.5233,11.317 C3.3408,11.375 3.7708,12.1565 3.7708,12.1565 C4.4973,13.401 5.6768,13.0415 6.1413,12.8335 C6.2153,12.307 6.4253,11.948 6.6583,11.7445 C4.8498,11.539 2.9483,10.84 2.9483,7.719 C2.9483,6.83 3.2658,6.103 3.7868,5.5335 C3.7028,5.3275 3.4233,4.4995 3.8663,3.378 C3.8663,3.378 4.5503,3.159 6.1063,4.213 C6.7558,4.032 7.4528,3.942 8.1453,3.9385 C8.8368,3.942 9.5338,4.032 10.1843,4.213 C11.7393,3.159 12.4218,3.378 12.4218,3.378 C12.8663,4.4995 12.5868,5.3275 12.5028,5.5335 C13.0248,6.103 13.3403,6.83 13.3403,7.719 C13.3403,10.848 11.4358,11.5365 9.6213,11.738 C9.9138,11.9895 10.1743,12.4865 10.1743,13.2465 C10.1743,14.335 10.1643,15.2135 10.1643,15.4805 C10.1643,15.6985 10.3108,15.952 10.7243,15.8725 C13.9578,14.793 16.2898,11.7425 16.2898,8.1455 C16.2898,3.6465 12.6428,-3.55271368e-15 8.1443,-3.55271368e-15" id="Fill-1" fill="#57687D" mask="url(#mask-2)"></path>
            </g>
        </g>
    </g>
</svg>