<?xml version="1.0" standalone="no"?>
<!DOCTYPE svg PUBLIC "-//W3C//DTD SVG 20010904//EN"
 "http://www.w3.org/TR/2001/REC-SVG-20010904/DTD/svg10.dtd">
<svg version="1.0" xmlns="http://www.w3.org/2000/svg"
 width="400.000000pt" height="525.000000pt" viewBox="0 0 400.000000 525.000000"
 preserveAspectRatio="xMidYMid meet">
<metadata>
Created by potrace 1.15, written by Peter Selinger 2001-2017
</metadata>
<g transform="translate(0.000000,525.000000) scale(0.100000,-0.100000)"
fill="#000000" stroke="none">
<path d="M1413 1339 c-58 -11 -94 -31 -135 -77 -163 -180 14 -465 247 -398 29
9 69 28 87 43 18 15 35 28 37 30 3 2 -9 18 -26 35 l-31 31 -36 -28 c-122 -93
-278 20 -237 172 14 50 66 99 115 108 40 8 93 -7 130 -36 l26 -20 25 28 c33
38 31 49 -13 78 -33 22 -54 28 -127 39 -11 2 -39 0 -62 -5z"/>
<path d="M820 1100 l0 -240 175 0 175 0 0 45 0 45 -130 0 -130 0 0 55 0 55
115 0 115 0 0 40 0 40 -115 0 -115 0 0 55 0 55 130 0 130 0 0 45 0 45 -175 0
-175 0 0 -240z"/>
<path d="M1710 1100 l0 -240 165 0 165 0 0 45 0 45 -120 0 -120 0 0 195 0 195
-45 0 -45 0 0 -240z"/>
<path d="M2100 1100 l0 -240 45 0 45 0 0 240 0 240 -45 0 -45 0 0 -240z"/>
<path d="M2280 1101 l0 -241 50 0 50 0 0 78 0 77 73 1 c57 0 82 6 114 23 111
63 109 222 -4 277 -29 14 -68 19 -160 22 l-123 4 0 -241z m239 136 c32 -16 44
-62 26 -97 -16 -32 -39 -40 -112 -40 l-53 0 0 75 0 75 58 0 c31 0 68 -6 81
-13z"/>
<path d="M2775 1327 c-16 -8 -41 -27 -55 -42 -21 -22 -25 -36 -25 -87 0 -56 2
-62 33 -88 19 -15 61 -35 95 -44 91 -25 116 -36 122 -56 22 -68 -106 -90 -186
-31 -36 27 -39 26 -68 -11 -24 -30 -24 -31 -5 -45 79 -59 207 -81 274 -46 55
29 83 78 77 138 -6 65 -41 95 -148 126 -44 13 -86 31 -95 40 -21 23 -9 57 24
70 31 12 115 -5 133 -27 18 -21 33 -17 52 15 24 40 22 44 -24 71 -52 29 -159
37 -204 17z"/>
<path d="M3100 1100 l0 -240 180 0 180 0 0 45 0 45 -135 0 -135 0 0 55 0 55
120 0 120 0 0 40 0 40 -120 0 -120 0 0 55 0 55 135 0 135 0 0 45 0 45 -180 0
-180 0 0 -240z"/>
<path d="M920 595 c0 -130 2 -155 15 -155 12 0 15 23 17 125 l3 125 98 -125
c54 -69 104 -125 112 -125 13 0 15 26 15 155 0 148 -1 155 -20 155 -18 0 -20
-8 -22 -121 l-3 -121 -95 121 c-52 67 -100 121 -107 121 -10 0 -13 -36 -13
-155z"/>
<path d="M1300 728 c-55 -38 -74 -72 -74 -131 0 -61 26 -112 72 -139 54 -32
154 -19 191 25 20 25 -5 29 -41 7 -40 -24 -105 -26 -136 -4 -49 34 -67 116
-37 174 30 58 112 77 173 40 31 -19 52 -19 52 -1 0 4 -17 17 -39 29 -52 29
-118 29 -161 0z"/>
<path d="M1542 624 l3 -126 33 -29 c27 -24 41 -29 86 -29 43 0 58 5 80 25 39
36 46 65 46 181 0 82 -3 104 -14 104 -11 0 -15 -25 -17 -114 -4 -105 -6 -117
-28 -140 -18 -19 -35 -26 -62 -26 -83 0 -99 28 -99 175 0 89 -2 105 -16 105
-14 0 -15 -16 -12 -126z"/>
<path d="M1840 594 l0 -156 94 4 c84 3 97 6 120 27 36 34 35 82 -1 116 -15 14
-23 25 -17 25 20 0 36 53 25 83 -15 40 -59 57 -146 57 l-75 0 0 -156z m160
113 c15 -8 26 -23 28 -39 5 -38 -29 -58 -100 -58 l-58 0 0 55 0 55 53 0 c28 0
63 -6 77 -13z m28 -143 c31 -21 26 -64 -8 -81 -14 -7 -53 -13 -87 -13 l-63 0
0 55 0 55 68 0 c46 0 75 -5 90 -16z"/>
<path d="M2187 602 c-37 -81 -67 -150 -67 -154 0 -5 6 -8 13 -8 8 0 22 18 32
40 l18 40 87 0 88 0 16 -40 c9 -22 23 -40 31 -40 8 0 15 3 15 8 0 4 -30 73
-67 154 -43 94 -73 147 -83 148 -10 0 -39 -53 -83 -148z"/>
<path d="M2430 735 c0 -12 12 -15 55 -15 l55 0 0 -140 c0 -118 2 -140 15 -140
13 0 15 22 15 140 l0 140 56 0 c40 0 55 3 52 13 -3 8 -40 13 -126 15 -104 2
-122 0 -122 -13z"/>
<path d="M2915 740 c-52 -21 -95 -90 -95 -150 0 -44 36 -108 73 -130 46 -28
124 -27 168 3 125 83 67 288 -81 286 -25 0 -54 -4 -65 -9z m137 -46 c87 -78
38 -224 -77 -224 -127 0 -167 190 -50 241 31 13 103 4 127 -17z"/>
<path d="M3180 595 c0 -130 2 -155 15 -155 12 0 15 23 17 126 l3 125 99 -125
c54 -69 105 -126 112 -126 11 0 14 31 14 155 0 150 -1 155 -21 155 -19 0 -20
-5 -17 -125 2 -69 3 -125 2 -125 0 0 -44 56 -98 125 -54 69 -105 125 -112 125
-11 0 -14 -31 -14 -155z"/>
</g>
</svg>
