<svg xmlns="http://www.w3.org/2000/svg" xmlns:xlink="http://www.w3.org/1999/xlink" width="96" height="17" viewBox="0 0 96 17"><defs><path id="d1xtd" d="M898.82 2546.76h-5.69a2.17 2.17 0 0 0 2.2 1.65c.76.01 1.35-.26 1.8-.7a.4.4 0 0 1 .54 0l.93.86c.16.15.17.4.01.56a4.69 4.69 0 0 1-3.44 1.31 4.24 4.24 0 0 1-4.41-4.43c0-2.6 1.81-4.41 4.25-4.41 2.52 0 4.2 1.83 4.2 4.33v.45a.4.4 0 0 1-.4.38m-5.66-1.65h3.78c-.23-.9-.84-1.5-1.85-1.5-.93 0-1.67.52-1.93 1.5"/><path id="d1xta" d="M900.23 2537.39h8.98v13.06h-8.98z"/><path id="d1xtf" d="M909.21 2537.78v12.14c0 .21-.17.39-.39.39h-1.41a.39.39 0 0 1-.4-.4v-.64h-.03c-.6.76-1.5 1.18-2.64 1.18-2.37 0-4.11-1.76-4.11-4.4 0-2.6 1.74-4.45 4.04-4.45 1.06 0 1.95.37 2.59 1.1h.05v-4.92c0-.22.17-.39.39-.39h1.52c.22 0 .4.17.4.39m-2.19 8.27c0-1.36-.95-2.4-2.26-2.4-1.24 0-2.2.93-2.2 2.4 0 1.39.91 2.33 2.2 2.33 1.26 0 2.26-.92 2.26-2.33"/><path id="d1xtb" d="M910.69 2541.6h8.88v12.32h-8.88z"/><path id="d1xth" d="M919.18 2541.74c.21 0 .39.17.39.39v7.2c0 2.66-1.18 4.59-4.47 4.59-1.23 0-2.3-.25-3.25-.71a.39.39 0 0 1-.2-.46l.33-1.17a.39.39 0 0 1 .55-.25c.71.36 1.45.59 2.36.59 1.62 0 2.44-.86 2.44-1.91v-.86h-.05c-.6.65-1.46 1-2.5 1-2.37 0-4.09-1.72-4.09-4.22 0-2.52 1.67-4.33 3.97-4.33.97 0 1.88.33 2.57 1.02h.05v-.49c0-.22.18-.39.4-.39zm-1.81 4.1c0-1.3-.95-2.15-2.16-2.15-1.29 0-2.18.88-2.18 2.17a2.1 2.1 0 0 0 2.18 2.22c1.26 0 2.16-.93 2.16-2.23z"/><path id="d1xti" d="M929.06 2546.76h-5.69a2.17 2.17 0 0 0 2.2 1.65c.76.01 1.35-.26 1.8-.7a.4.4 0 0 1 .54 0l.93.86c.16.15.17.4.01.56a4.69 4.69 0 0 1-3.44 1.31 4.24 4.24 0 0 1-4.41-4.43c0-2.6 1.81-4.41 4.25-4.41 2.52 0 4.2 1.83 4.2 4.33v.45a.4.4 0 0 1-.4.38m-5.66-1.65h3.78c-.23-.9-.84-1.5-1.85-1.5-.93 0-1.67.52-1.93 1.5"/><path id="d1xtj" d="M942.37 2542.26l-2.66 7.78a.39.39 0 0 1-.37.26h-1.4a.39.39 0 0 1-.38-.28l-1.43-5h-.04l-1.43 5a.39.39 0 0 1-.38.28h-1.4a.39.39 0 0 1-.36-.26l-2.67-7.78a.39.39 0 0 1 .37-.52h1.47c.17 0 .32.1.37.27l1.59 4.94h.03l1.42-4.93c.04-.16.2-.28.37-.28h1.26a.4.4 0 0 1 .37.28l1.43 4.93h.04l1.58-4.94a.4.4 0 0 1 .37-.27H942c.26 0 .45.26.37.52"/><path id="d1xtk" d="M942.71 2546.02c0-2.56 1.83-4.42 4.55-4.42 2.67 0 4.57 1.79 4.57 4.42 0 2.64-1.9 4.43-4.57 4.43-2.72 0-4.55-1.87-4.55-4.43m6.8 0c0-1.4-.96-2.37-2.24-2.37-1.34 0-2.24 1.02-2.24 2.37 0 1.34.93 2.37 2.24 2.37 1.25 0 2.24-.98 2.24-2.37"/><path id="d1xtl" d="M958.08 2541.62v2.08a.4.4 0 0 1-.4.4h-.2c-1.42 0-2.2.96-2.2 2.22v3.6c0 .21-.17.38-.39.38h-1.52a.39.39 0 0 1-.39-.38v-7.79c0-.21.17-.39.39-.39h1.52c.22 0 .4.18.4.39v.87h.01a3.16 3.16 0 0 1 2.78-1.38"/><path id="d1xtm" d="M962.71 2547.85h-.03l-1.63 2.29c-.07.1-.19.16-.31.16h-1.58a.39.39 0 0 1-.32-.6l2.4-3.54a.39.39 0 0 0 0-.45l-2.35-3.36a.39.39 0 0 1 .32-.61h1.66c.13 0 .25.07.32.18l1.49 2.28h.02l1.5-2.28c.07-.11.2-.18.32-.18h1.65c.31 0 .5.35.32.61l-2.34 3.35c-.1.13-.1.3 0 .44l2.4 3.56c.18.26 0 .6-.32.6h-1.57a.4.4 0 0 1-.32-.16z"/><path id="d1xtc" d="M871 2537.79h13.65v15.73H871z"/><path id="d1xto" d="M884.22 2541.61a.91.91 0 0 0-.92-.02l-9.3 5.14a.58.58 0 1 1-.57-1.02l7.85-4.34a.9.9 0 1 0-.88-1.59l-6.14 3.4a.59.59 0 0 1-.57-1.03l4.59-2.53a.97.97 0 0 0 .04-1.68.98.98 0 0 0-.99-.03l-6.02 3.34c-.19.1-.3.3-.3.5l-.01 7.18a.9.9 0 0 0 1.35.8l9.7-5.37a.59.59 0 0 1 .57 1.02l-8.25 4.56a.9.9 0 1 0 .89 1.6l6.54-3.63a.59.59 0 0 1 .57 1.02l-5 2.77a.97.97 0 1 0 .95 1.7l6.02-3.33c.19-.1.3-.3.3-.51l.01-7.18a.9.9 0 0 0-.43-.77"/><clipPath id="d1xte"><use xlink:href="#d1xta"/></clipPath><clipPath id="d1xtg"><use xlink:href="#d1xtb"/></clipPath><clipPath id="d1xtn"><use xlink:href="#d1xtc"/></clipPath></defs><g><g transform="translate(-871 -2537)"><g><use fill="#57687d" xlink:href="#d1xtd"/></g><g><g/><g clip-path="url(#d1xte)"><use fill="#57687d" xlink:href="#d1xtf"/></g></g><g><g/><g clip-path="url(#d1xtg)"><use fill="#57687d" xlink:href="#d1xth"/></g></g><g><use fill="#57687d" xlink:href="#d1xti"/></g><g><use fill="#57687d" xlink:href="#d1xtj"/></g><g><use fill="#57687d" xlink:href="#d1xtk"/></g><g><use fill="#57687d" xlink:href="#d1xtl"/></g><g><use fill="#57687d" xlink:href="#d1xtm"/></g><g><g/><g clip-path="url(#d1xtn)"><use fill="#57687d" xlink:href="#d1xto"/></g></g></g></g></svg>