<svg xmlns="http://www.w3.org/2000/svg" xmlns:xlink="http://www.w3.org/1999/xlink" width="21" height="20" viewBox="0 0 21 20"><defs><path id="gz5ga" d="M280.39 714.24a1 1 0 0 1 .1-.9 5.98 5.98 0 0 0-4.99-9.34 6 6 0 1 0 3.34 10.99 1 1 0 0 1 .9-.1l1.04.39zm-1.83 3.15a8 8 0 1 1 3.87-3.4l1 2.66a1 1 0 0 1-1.28 1.29l-2.65-1c-.3.17-.61.32-.94.45zm-15.5 3.2l1.01-2.66a7.97 7.97 0 0 1 .32-8.5 1 1 0 0 1 1.65 1.13 5.97 5.97 0 0 0-.03 6.7 1 1 0 0 1 .1.92l-.39 1.03 1.04-.39a1 1 0 0 1 .9.1 5.98 5.98 0 0 0 6.43.16 1 1 0 0 1 1.04 1.71 7.97 7.97 0 0 1-8.12.08l-2.65 1a1 1 0 0 1-1.3-1.29z"/></defs><g><g transform="translate(-263 -702)"><use fill="#26d6f1" xlink:href="#gz5ga"/></g></g></svg>