<svg xmlns="http://www.w3.org/2000/svg" xmlns:xlink="http://www.w3.org/1999/xlink" width="16" height="22" viewBox="0 0 16 22"><defs><path id="ht4ia" d="M506 2956.06a8.03 8.03 0 0 1 8-8.06 8.07 8.07 0 1 1 4.5 14.72v2.78a4.5 4.5 0 0 1-9 0v-2.78a8.07 8.07 0 0 1-3.5-6.66zm10.5 9.44h-5a2.5 2.5 0 0 0 5 0zm0-2v-1.33a1 1 0 0 1 .5-.86 6.07 6.07 0 0 0-3-11.31c-3.31 0-6 2.71-6 6.06 0 2.19 1.16 4.17 3 5.25.31.18.5.5.5.86v1.33z"/></defs><g><g transform="translate(-506 -2948)"><use fill="#f5a623" xlink:href="#ht4ia"/></g></g></svg>