<svg xmlns="http://www.w3.org/2000/svg" xmlns:xlink="http://www.w3.org/1999/xlink" width="20" height="20" viewBox="0 0 20 20"><defs><path id="tr0ma" d="M914 836a1 1 0 0 0-1 1v3a1 1 0 0 0 1 1h3a1 1 0 0 0 1-1v-3a1 1 0 0 0-1-1zm0-2h3a3 3 0 0 1 3 3v3a3 3 0 0 1-3 3h-3a3 3 0 0 1-3-3v-3a3 3 0 0 1 3-3zm0-9a1 1 0 0 0-1 1v3a1 1 0 0 0 1 1h3a1 1 0 0 0 1-1v-3a1 1 0 0 0-1-1zm0-2h3a3 3 0 0 1 3 3v3a3 3 0 0 1-3 3h-3a3 3 0 0 1-3-3v-3a3 3 0 0 1 3-3zm-11 13a1 1 0 0 0-1 1v3a1 1 0 0 0 1 1h3a1 1 0 0 0 1-1v-3a1 1 0 0 0-1-1zm0-2h3a3 3 0 0 1 3 3v3a3 3 0 0 1-3 3h-3a3 3 0 0 1-3-3v-3a3 3 0 0 1 3-3zm0-9a1 1 0 0 0-1 1v3a1 1 0 0 0 1 1h3a1 1 0 0 0 1-1v-3a1 1 0 0 0-1-1zm0-2h3a3 3 0 0 1 3 3v3a3 3 0 0 1-3 3h-3a3 3 0 0 1-3-3v-3a3 3 0 0 1 3-3z"/></defs><g><g transform="translate(-900 -823)"><use fill="#26d6f1" xlink:href="#tr0ma"/></g></g></svg>