<?xml version="1.0" encoding="UTF-8"?>
<svg width="16px" height="22px" viewBox="0 0 16 22" version="1.1" xmlns="http://www.w3.org/2000/svg" xmlns:xlink="http://www.w3.org/1999/xlink">
    <!-- Generator: Sketch 51.3 (57544) - http://www.bohemiancoding.com/sketch -->
    <title>light</title>
    <desc>Created with Sketch.</desc>
    <defs></defs>
    <g id="Designs" stroke="none" stroke-width="1" fill="none" fill-rule="evenodd">
        <g id="VD-ioFog-Documentation-·-Tablet" transform="translate(-54.000000, -2948.000000)" fill="#F5A623" fill-rule="nonzero">
            <g id="Group-14-Copy-2" transform="translate(24.000000, 2916.000000)">
                <g id="light" transform="translate(30.000000, 32.000000)">
                    <path d="M10.5,15.5 L10.5,14.1733022 C10.5,13.8176342 10.6889122,13.4887319 10.9961312,13.3095219 C12.8399951,12.2339411 14,10.2494976 14,8.05882353 C14,4.71076311 11.3118266,2 8,2 C4.68817342,2 2,4.71076311 2,8.05882353 C2,10.2494976 3.16000487,12.2339411 5.00386878,13.3095219 C5.31108775,13.4887319 5.5,13.8176342 5.5,14.1733022 L5.5,15.5 L10.5,15.5 Z M10.5,17.5 L5.5,17.5 C5.5,18.8807119 6.6192881,20 8,20 C9.3807119,20 10.5,18.8807119 10.5,17.5 Z M0,8.05882353 C0,3.60992277 3.57984008,0 8,0 C12.4201599,0 16,3.60992277 16,8.05882353 C16,10.7654435 14.6634026,13.2393262 12.5,14.7228659 L12.5,17.5 C12.5,19.9852814 10.4852814,22 8,22 C5.51471863,22 3.5,19.9852814 3.5,17.5 L3.5,14.7228659 C1.33659743,13.2393262 0,10.7654435 0,8.05882353 Z" id="shape"></path>
                </g>
            </g>
        </g>
    </g>
</svg>