<svg xmlns="http://www.w3.org/2000/svg" xmlns:xlink="http://www.w3.org/1999/xlink" width="18" height="22" viewBox="0 0 18 22"><defs><path id="99f5a" d="M604.05 832.7a1 1 0 0 0 0 1.42l2.83 2.82a1 1 0 0 0 1.4 0l5.66-5.65a1 1 0 1 0-1.41-1.41l-4.95 4.94-2.12-2.12a1 1 0 0 0-1.41 0zm4.95 10.12c-4.71-3.02-7-5.68-7-7.82v-6.97a1 1 0 0 1 .45-.83c2.2-1.47 4.39-2.2 6.55-2.2s4.34.73 6.55 2.2a1 1 0 0 1 .45.83V835c0 2.14-2.29 4.8-7 7.82zm9-14.79a3 3 0 0 0-1.34-2.5A13.73 13.73 0 0 0 609 823c-2.58 0-5.14.85-7.66 2.54a3 3 0 0 0-1.34 2.5V835c0 3.03 2.68 6.15 7.92 9.5a2 2 0 0 0 2.16 0c5.24-3.35 7.92-6.47 7.92-9.5z"/></defs><g><g transform="translate(-600 -823)"><use fill="#26d6f1" xlink:href="#99f5a"/></g></g></svg>